<svg xmlns="http://www.w3.org/2000/svg" viewBox="0 0 757.03 324.82"><defs><style>.cls-1{fill:none;stroke:#000;stroke-miterlimit:10;stroke-width:10px;}</style></defs><g id="Capa_2" data-name="Capa 2"><g id="Capa_1-2" data-name="Capa 1"><path d="M16,323.65,0,220.52H14.94l6.74,46.58,4.16,32.82h.41l3.57-32.82,5.63-46.58H50.1L35.39,323.65Z"/><path d="M52.73,323.65,67.44,220.52H88.18l15.65,103.13H89.18l-2.46-18.4H70.08l-2.23,18.4Zm18.87-31H85.08l-6.92-51.8h-.23Z"/><path d="M113.14,323.65V220.52h15.71v89.77h19.86v13.36Z"/><path d="M157.21,323.65V220.52h15.7v41.72H187V220.52h15.71V323.65H187V275.72H172.91v47.93Z"/><path d="M212.05,323.65l14.71-103.13H247.5l15.64,103.13H248.5L246,305.25H229.39l-2.22,18.4Zm18.87-31h13.47l-6.91-51.8h-.23Z"/><path d="M272.46,323.65V220.52h15.7v89.77H308v13.36Z"/><path d="M316.52,323.65V220.52h15.71v89.77h19.86v13.36Z"/><path d="M354.49,323.65,369.2,220.52h20.74l15.65,103.13H390.94l-2.46-18.4H371.84l-2.23,18.4Zm18.87-31h13.48l-6.92-51.8h-.23Z"/><path d="M436.41,323.65V220.52H471.8v13.65H452.11V261.6h18.28v13.71H452.11v48.34Z"/><path d="M483.1,323.65V220.52h15.71V323.65Z"/><path d="M520,323.65V234.12H507.89v-13.6h39.32v13.6h-11.6v89.53Z"/><path d="M556,323.65V220.52h12.3l21.86,61.88L589,254.27V220.52h14.12V323.65H592l-22.44-64,.88,27.07v37Z"/><path d="M618.63,323.65V220.52H653.2v13.54H634.34v30h17.93V277.3H634.34v32.81h19.57v13.54Z"/><path d="M684.32,324.82a25.45,25.45,0,0,1-10.76-2,15.89,15.89,0,0,1-6.79-5.92,26.78,26.78,0,0,1-3.55-9.49,69.59,69.59,0,0,1-1.05-12.75v-9.2h14.88v10.37q0,8.32,1.41,12A5.42,5.42,0,0,0,684,311.4a6.08,6.08,0,0,0,4.25-1.32,7.25,7.25,0,0,0,1.94-4.22,46.81,46.81,0,0,0,.49-7.58,23.16,23.16,0,0,0-2.43-10.61,42.81,42.81,0,0,0-7.35-10l-7.62-7.85a54.9,54.9,0,0,1-5.71-7,31.69,31.69,0,0,1-4-8.23,32.23,32.23,0,0,1-1.5-10.16,41.75,41.75,0,0,1,2-13.77,15.84,15.84,0,0,1,6.74-8.53q4.76-2.9,13-2.9A23.84,23.84,0,0,1,694,221.2a14.36,14.36,0,0,1,6.27,5.56,25.33,25.33,0,0,1,3.2,8.91,69.08,69.08,0,0,1,.93,12V254H689.94v-7.39a50.79,50.79,0,0,0-.5-7.79,9.27,9.27,0,0,0-1.84-4.66,4.94,4.94,0,0,0-3.93-1.55,6.72,6.72,0,0,0-4,1.08,6.07,6.07,0,0,0-2.2,3.34,20.89,20.89,0,0,0-.67,5.83,16.81,16.81,0,0,0,.82,5.57,15.38,15.38,0,0,0,2.52,4.51q1.7,2.18,4.22,4.87l8.49,9.19a55.21,55.21,0,0,1,9.49,13.66,36,36,0,0,1,3.4,15.82,52.07,52.07,0,0,1-2,15.55,17.5,17.5,0,0,1-6.68,9.53Q692.4,324.81,684.32,324.82Z"/><path d="M735.59,324.82a25.45,25.45,0,0,1-10.76-2,15.89,15.89,0,0,1-6.79-5.92,26.78,26.78,0,0,1-3.55-9.49,69.59,69.59,0,0,1-1-12.75v-9.2h14.88v10.37q0,8.32,1.41,12a5.41,5.41,0,0,0,5.56,3.63,6.08,6.08,0,0,0,4.25-1.32,7.25,7.25,0,0,0,1.94-4.22,46.81,46.81,0,0,0,.49-7.58,23.16,23.16,0,0,0-2.43-10.61,42.81,42.81,0,0,0-7.35-10l-7.62-7.85a54.9,54.9,0,0,1-5.71-7,32,32,0,0,1-4.05-8.23,32.53,32.53,0,0,1-1.49-10.16,41.49,41.49,0,0,1,2-13.77,15.84,15.84,0,0,1,6.74-8.53q4.76-2.9,13-2.9a23.84,23.84,0,0,1,10.22,1.91,14.36,14.36,0,0,1,6.27,5.56,25.33,25.33,0,0,1,3.2,8.91,69.08,69.08,0,0,1,.93,12V254H741.21v-7.39a50.79,50.79,0,0,0-.5-7.79,9.27,9.27,0,0,0-1.84-4.66,4.94,4.94,0,0,0-3.93-1.55,6.72,6.72,0,0,0-4,1.08,6.07,6.07,0,0,0-2.2,3.34,20.89,20.89,0,0,0-.67,5.83,16.81,16.81,0,0,0,.82,5.57,15.38,15.38,0,0,0,2.52,4.51q1.7,2.18,4.22,4.87l8.49,9.19a55.21,55.21,0,0,1,9.49,13.66,36,36,0,0,1,3.4,15.82,52.07,52.07,0,0,1-2,15.55,17.55,17.55,0,0,1-6.68,9.53Q743.67,324.81,735.59,324.82Z"/><path d="M363.38,128.72c-2.2,3.18-4.36,6.38-6.6,9.53q-4,5.69-8.17,11.27c-4.43,6-8.95,11.9-13.63,17.68-3.2,4-6.44,7.87-9.8,11.69-2.69,3.06-5.42,6.09-8.26,9a3.74,3.74,0,0,1-2.06,1.44c-.37.17-.61-.08-.84-.3q-2.06-1.94-4-4c-1.18-3.12-2.39-6.22-3.54-9.35a3.14,3.14,0,0,1,1-3.69c3.74-3.28,7.35-6.69,10.79-10.27q4.56-4.74,8.88-9.68c3.85-4.37,7.57-8.85,11.2-13.39,2.92-3.65,5.75-7.36,8.61-11.06,3.28-4.23,6.46-8.53,9.59-12.87,3.25-4.51,6.51-9,9.68-13.56q5.82-8.32,11.49-16.74,7.33-10.83,14.39-21.84,6.74-10.43,13.29-21c2.52-4,5-8.1,7.42-12.18.33-.55.56-.51,1-.24,2.48,1.42,5,2.83,7.48,4.22.43.24.51.43.26.87-2.4,4.21-4.77,8.43-7.18,12.63q-3.3,5.78-6.66,11.5-4.12,7-8.31,14c-2.57,4.28-5.15,8.55-7.78,12.8-3.26,5.24-6.57,10.45-9.86,15.67-3.9,6.21-7.94,12.32-12,18.41-.23.35-.5.66-.75,1-1.65,1.76-3.38,3.43-5.08,5.14a2.22,2.22,0,0,0-.63,2.64A.82.82,0,0,1,363.38,128.72Z"/><path d="M430.23,100.88c1.52-3.79,3-7.46,4.43-11.14a1.7,1.7,0,0,1,1-1,36.84,36.84,0,0,0,14.21-10.9,30.63,30.63,0,0,0,6.41-13.55,21.17,21.17,0,0,0-2.38-15.16,31,31,0,0,0-8.09-8.73,38.24,38.24,0,0,0-15.48-7.13c-.5-.1-.48-.24-.26-.63,2.9-5.12,5.77-10.24,8.67-15.36a5.72,5.72,0,0,0,.84-2.49c0-.49.13-.59.63-.37a105.55,105.55,0,0,0,16.9,5.5A159.52,159.52,0,0,0,473.16,23c5.45.79,10.91,1.37,16.41,1.7a16,16,0,0,0,1.94.15c.88-.06,1,.28.9,1.06a119.31,119.31,0,0,1-4,17.52,90.47,90.47,0,0,1-10.13,22.16,73.38,73.38,0,0,1-11,13.27,98.84,98.84,0,0,1-15.3,12,87.06,87.06,0,0,1-17.79,8.71A29.46,29.46,0,0,1,430.23,100.88Z"/><path d="M429.72,106a1.8,1.8,0,0,1,0-.23c.4-2,1.66-2.89,3.66-3.51a83.73,83.73,0,0,0,18.23-8.36,100.13,100.13,0,0,0,14.8-10.94,76.88,76.88,0,0,0,18.07-23.55,106.7,106.7,0,0,0,9.34-29.23c.2-1.2.37-2.4.56-3.6.05-.32.05-.61.53-.65,1.95-.16,3.89-.34,5.84-.55.6-.06.73.07.65.7a131.8,131.8,0,0,1-5,22.19,99,99,0,0,1-7,16.86,61.52,61.52,0,0,1-13.28,17.5,111.88,111.88,0,0,1-17.29,12.93,79,79,0,0,1-22.17,9.19A55.67,55.67,0,0,1,429.72,106Z"/><path d="M430.59,7.39c2.06,1.15,4.17,2.23,6.18,3.45a4,4,0,0,1,1.35,5.52c-1.1,2.09-2.29,4.13-3.45,6.19-1.78,3.16-3.6,6.31-5.34,9.5a4.26,4.26,0,0,1-5.79,1.63c-3.63-2.16-7.37-4.12-11-6.22A4.08,4.08,0,0,1,411,21.77q4.36-7.75,8.71-15.52a4,4,0,0,1,6.09-1.48A3,3,0,0,0,426.38,8c.27.27.54.54.8.82.77.84.92.82,1.78,0A7.36,7.36,0,0,1,430.59,7.39Z"/><path d="M428.06,2.25c.48-.87.84-1.85,2-2.09a12.68,12.68,0,0,1,3.48,2.92,1.62,1.62,0,0,0,.19.18c.18.15.38.37.6.11s-.05-.37-.19-.51c-.53-.51-1.05-1-1.58-1.56-.18-.17-.61-.46,0-.64l3.61,2a2.55,2.55,0,0,1,1.09,3.67c-.42.78-.89,1.53-1.27,2.32-.24.49-.5.46-.88.23l-3.67-2.12c-.23-.36.07-.53.27-.74.63-.65.64-.78,0-1.44-.39-.41-.79-.8-1.19-1.19A1.43,1.43,0,0,0,429.44,3C428.91,3,428.24,3,428.06,2.25Z"/><path d="M363.38,128.72c-.76-1.57-.68-2.29.56-3.56,1.47-1.52,3-3,4.51-4.47.17-.16.32-.35.59-.35a41.63,41.63,0,0,1-2.61,4,22.57,22.57,0,0,0-2.15,2.33,1.57,1.57,0,0,0-.22,1.18Z"/><path d="M427.71,4.63c-1.12-.28-.62-.78-.19-1.28s.79-.41,1.31-.46c1.41-.12,2.1.83,2.92,1.65.25.25.5.52.35.92a1,1,0,0,1-.94.68,1.81,1.81,0,0,1-1-.1.88.88,0,0,1-.54-.33C429.37,4.71,428.55,4.65,427.71,4.63Z"/><path d="M426.33,5l.87.56a1.69,1.69,0,0,0,2.18,1.2.14.14,0,0,1,.13,0c.17.21.05.39-.07.55a3.58,3.58,0,0,0-.62,1.36c-.18.79-.79,1-1.38.45s-1-1-1.53-1.49a.75.75,0,0,1-.25-.72,1.75,1.75,0,0,0-.06-1C425.35,5.26,425.61,4.94,426.33,5Z"/><path d="M310.05,185.06c1.36.82,2.25,2.14,3.41,3.17.45.4.78.93,1.4,1.12a3.17,3.17,0,0,1-3.94-1.9C310.6,186.67,310.34,185.86,310.05,185.06Z"/><path d="M432.58.66c-.27.2-.1.3.07.46.63.58,1.21,1.2,1.85,1.77.23.21.38.35.1.62s-.45.5-.8.14c-.51-.52-1-1.06-1.57-1.55S431.36.85,430.47.78c-.25,0-.4-.33-.42-.62A2.41,2.41,0,0,1,432.58.66Z"/><path d="M426.33,5c-.53.21-.9.48-.46,1.1,0,0,.07.12.06.16-.47,1.5,1,1.87,1.6,2.72a.64.64,0,0,0,.78.25c.3-.12.34-.39.32-.67-.08-.77.63-1.14.88-1.75l1.08.63a13.94,13.94,0,0,1-1.94,2.05c-.44.45-.91.32-1.32-.08-.56-.56-1.12-1.13-1.66-1.71s0-1.19-.3-1.75,0-.9.47-1.13A.56.56,0,0,1,426.33,5Z"/><path d="M430.21,6c.58-.21,1.5.16,1.72-.67.17-.67-.62-1-1-1.41a3,3,0,0,0-3.39-.61,2.12,2.12,0,0,1,.54-1.1,1.33,1.33,0,0,0,1.37.49,1.26,1.26,0,0,1,1.24.44L432,4.49c.68.69.67,1-.06,1.65-.21.18-.44.31-.46.61Z"/><path d="M364.06,127.81a1,1,0,0,1,.1-1.41c.63-.66,1.24-1.34,1.86-2,.1-.12.21-.33.41-.1Z"/><path d="M429.38,6.71a1.34,1.34,0,0,1-2.18-1.2A11.58,11.58,0,0,1,429.38,6.71Z"/><path d="M427.71,4.63c1.3-.36,1.76-.1,2,1.08A11,11,0,0,1,427.71,4.63Z"/><path d="M393.65,128.72c2.2,3.18,4.36,6.38,6.61,9.53q4,5.69,8.16,11.27c4.44,6,8.95,11.9,13.63,17.68,3.2,4,6.44,7.87,9.8,11.69,2.69,3.06,5.43,6.09,8.26,9a3.77,3.77,0,0,0,2.06,1.44c.38.17.61-.08.84-.3q2.06-1.94,4-4c1.18-3.12,2.39-6.22,3.54-9.35a3.14,3.14,0,0,0-1-3.69c-3.74-3.28-7.34-6.69-10.79-10.27q-4.56-4.74-8.88-9.68c-3.85-4.37-7.57-8.85-11.2-13.39-2.92-3.65-5.75-7.36-8.61-11.06-3.28-4.23-6.46-8.53-9.59-12.87-3.25-4.51-6.5-9-9.68-13.56Q385,92.87,379.31,84.45c-4.89-7.22-9.66-14.51-14.39-21.84q-6.74-10.43-13.29-21c-2.51-4-5-8.1-7.42-12.18-.33-.55-.56-.51-1-.24q-3.72,2.13-7.48,4.22c-.43.24-.51.43-.26.87,2.4,4.21,4.77,8.43,7.18,12.63q3.3,5.78,6.66,11.5,4.13,7,8.32,14c2.56,4.28,5.14,8.55,7.78,12.8,3.25,5.24,6.56,10.45,9.85,15.67,3.9,6.21,7.94,12.32,12,18.41.23.35.5.66.75,1,1.65,1.76,3.38,3.43,5.08,5.14a2.24,2.24,0,0,1,.64,2.64A.78.78,0,0,0,393.65,128.72Z"/><path d="M326.8,100.88c-1.51-3.79-3-7.46-4.43-11.14a1.7,1.7,0,0,0-1-1,36.92,36.92,0,0,1-14.21-10.9,30.63,30.63,0,0,1-6.41-13.55,21.17,21.17,0,0,1,2.38-15.16,30.93,30.93,0,0,1,8.1-8.73,38.12,38.12,0,0,1,15.48-7.13c.49-.1.47-.24.25-.63-2.9-5.12-5.77-10.24-8.67-15.36a5.58,5.58,0,0,1-.83-2.49c0-.49-.14-.59-.64-.37A105.44,105.44,0,0,1,300,19.89,160.25,160.25,0,0,1,283.87,23c-5.44.79-10.91,1.37-16.41,1.7a16,16,0,0,1-1.94.15c-.87-.06-1,.28-.9,1.06a119.31,119.31,0,0,0,3.95,17.52,90.14,90.14,0,0,0,10.14,22.16,72.92,72.92,0,0,0,11,13.27,99.32,99.32,0,0,0,15.3,12,87.06,87.06,0,0,0,17.79,8.71A29.46,29.46,0,0,0,326.8,100.88Z"/><path d="M327.32,106c0-.17,0-.2,0-.23-.39-2-1.66-2.89-3.66-3.51a83.73,83.73,0,0,1-18.23-8.36,100.13,100.13,0,0,1-14.8-10.94,76.7,76.7,0,0,1-18.06-23.55,106,106,0,0,1-9.34-29.23c-.21-1.2-.38-2.4-.57-3.6-.05-.32-.05-.61-.53-.65q-2.92-.24-5.83-.55c-.6-.06-.74.07-.66.7a131.8,131.8,0,0,0,5,22.19,99.87,99.87,0,0,0,6.95,16.86,61.52,61.52,0,0,0,13.28,17.5,112.36,112.36,0,0,0,17.29,12.93,79,79,0,0,0,22.17,9.19A55.82,55.82,0,0,0,327.32,106Z"/><path d="M326.44,7.39c-2.06,1.15-4.17,2.23-6.18,3.45a4,4,0,0,0-1.35,5.52c1.11,2.09,2.29,4.13,3.45,6.19,1.78,3.16,3.6,6.31,5.34,9.5a4.26,4.26,0,0,0,5.79,1.63c3.63-2.16,7.37-4.12,11-6.22A4.08,4.08,0,0,0,346,21.77Q341.63,14,337.28,6.25a4,4,0,0,0-6.09-1.48A3,3,0,0,1,330.65,8c-.27.27-.54.54-.8.82-.77.84-.92.82-1.78,0A7.36,7.36,0,0,0,326.44,7.39Z"/><path d="M329,2.25c-.49-.87-.85-1.85-2-2.09a12.58,12.58,0,0,0-3.49,2.92,1.62,1.62,0,0,1-.19.18c-.18.15-.38.37-.6.11s.05-.37.19-.51c.53-.51,1.05-1,1.58-1.56.18-.17.61-.46,0-.64l-3.6,2a2.56,2.56,0,0,0-1.1,3.67c.42.78.89,1.53,1.27,2.32.24.49.5.46.88.23l3.67-2.12c.23-.36-.07-.53-.27-.74-.63-.65-.64-.78,0-1.44.39-.41.79-.8,1.19-1.19A1.44,1.44,0,0,1,327.59,3C328.12,3,328.79,3,329,2.25Z"/><path d="M393.65,128.72c.76-1.57.68-2.29-.55-3.56-1.48-1.52-3-3-4.52-4.47a.85.85,0,0,0-.59-.35,41.63,41.63,0,0,0,2.61,4,22.57,22.57,0,0,1,2.15,2.33,1.57,1.57,0,0,1,.22,1.18Z"/><path d="M329.32,4.63c1.12-.28.62-.78.19-1.28s-.78-.41-1.31-.46c-1.41-.12-2.1.83-2.92,1.65-.25.25-.5.52-.35.92a1,1,0,0,0,.94.68,1.81,1.81,0,0,0,.95-.1.93.93,0,0,0,.55-.33C327.66,4.71,328.48,4.65,329.32,4.63Z"/><path d="M330.7,5l-.87.56a1.69,1.69,0,0,1-2.18,1.2.14.14,0,0,0-.13,0c-.17.21,0,.39.07.55a3.44,3.44,0,0,1,.62,1.36c.19.79.8,1,1.38.45s1-1,1.53-1.49a.73.73,0,0,0,.25-.72,1.85,1.85,0,0,1,.06-1C331.68,5.26,331.42,4.94,330.7,5Z"/><path d="M447,185.06c-1.36.82-2.25,2.14-3.41,3.17-.45.4-.78.93-1.4,1.12a3.17,3.17,0,0,0,3.94-1.9C446.43,186.67,446.69,185.86,447,185.06Z"/><path d="M324.45.66c.28.2.1.3-.07.46-.62.58-1.21,1.2-1.84,1.77-.24.21-.39.35-.11.62s.45.5.8.14c.51-.52,1-1.06,1.57-1.55s.88-1.25,1.77-1.32c.24,0,.4-.33.42-.62A2.42,2.42,0,0,0,324.45.66Z"/><path d="M330.7,5c.54.21.9.48.46,1.1,0,0-.07.12-.06.16.47,1.5-1,1.87-1.6,2.72a.63.63,0,0,1-.78.25c-.3-.12-.34-.39-.32-.67.08-.77-.63-1.14-.88-1.75l-1.08.63a13.49,13.49,0,0,0,1.95,2.05c.43.45.9.32,1.31-.08.56-.56,1.12-1.13,1.67-1.71s0-1.19.29-1.75,0-.9-.47-1.13A.56.56,0,0,0,330.7,5Z"/><path d="M326.82,6c-.58-.21-1.5.16-1.71-.67-.18-.67.62-1,1-1.41a3,3,0,0,1,3.38-.61,2.18,2.18,0,0,0-.53-1.1,1.34,1.34,0,0,1-1.38.49,1.26,1.26,0,0,0-1.24.44l-1.31,1.31c-.68.69-.67,1,.06,1.65.21.18.44.31.46.61Z"/><path d="M393,127.81a1,1,0,0,0-.1-1.41c-.63-.66-1.23-1.34-1.85-2-.11-.12-.22-.33-.42-.1Z"/><path d="M327.65,6.71a1.34,1.34,0,0,0,2.18-1.2A11.58,11.58,0,0,0,327.65,6.71Z"/><path d="M329.32,4.63c-1.29-.36-1.76-.1-1.95,1.08A11.25,11.25,0,0,0,329.32,4.63Z"/><line class="cls-1" y1="188.29" x2="250.56" y2="188.29"/><line class="cls-1" x1="506.47" y1="185.41" x2="757.03" y2="185.41"/></g></g></svg>